<svg class="icon-gear" version="1.1" viewBox="0 0 30 30" xmlns="http://www.w3.org/2000/svg">
  <defs>
    <g id="gear-symbol">
      <path d="m13.395 1.0998c-1.5905 0.15526-1.9362 0.43237-1.9362 1.521 0 1.0372-0.31143 1.4524-1.4695 1.9877-0.53619 0.24191-1.4172 0.74379-1.9534 1.141-0.55334 0.38002-1.0715 0.69143-1.1581 0.69143-0.086639 0-0.58763-0.20761-1.0886-0.46667-0.86475-0.43238-0.96856-0.44953-1.3829-0.20762-1.02 0.57048-3.1286 4.3734-2.8867 5.1858 0.051445 0.17331 0.48383 0.58763 0.95051 0.91621l0.86475 0.62282v2.5581c0 2.8181 0.017146 2.8-1.141 3.3705-0.7781 0.39716-0.8467 0.93334-0.32857 2.2305 0.57048 1.4 1.9705 3.44 2.5581 3.7343 0.39717 0.19045 0.55333 0.17331 1.3143-0.22477 0.48383-0.24191 0.96766-0.43236 1.0715-0.43236 0.12095 0 0.69143 0.3114 1.2619 0.67428 0.58763 0.38002 1.4867 0.89904 2.04 1.1581 1.0886 0.53618 1.3486 0.9162 1.3486 2.0572 0 1.2276 0.38003 1.3829 3.4229 1.3829h2.4895l0.41434-0.48382c0.31142-0.36286 0.41522-0.69144 0.41522-1.3143 0-0.93336 0.20761-1.2105 1.2791-1.6419 0.36288-0.15526 1.1924-0.62193 1.8324-1.0543 0.63999-0.43237 1.2619-0.77808 1.3657-0.77808 0.10382 0 0.58764 0.19045 1.0715 0.43236 0.51902 0.27622 1.0029 0.39717 1.2105 0.34572 0.50098-0.17331 1.6076-1.6419 2.4029-3.2153 0.96765-1.9533 0.91618-2.2991-0.38004-3.0772-0.34572-0.2076-0.67428-0.51902-0.70858-0.67428-0.05151-0.15527-0.06954-1.3829-0.05151-2.7143l0.01721-2.4029 0.60479-0.38002c1.4867-0.95051 1.5038-1.1581 0.41522-3.3534-0.79525-1.5905-2.0229-3.1115-2.5238-3.1115-0.15527 0-0.62195 0.20761-1.0715 0.44952-0.91621 0.51903-1.1753 0.46667-2.3505-0.38002-0.43239-0.31142-1.1924-0.76094-1.6943-0.9857-1.3314-0.62283-1.4172-0.72574-1.4172-1.7809 0-1.4343-0.29426-1.6248-2.9391-1.8667-0.33038-0.034303-1.1771 0-1.8694 0.086649zm4.201 8.2286c1.2619 0.65713 2.3162 1.7114 2.9734 2.9905 0.43236 0.86475 0.48382 1.1238 0.48382 2.6791 0 1.6076-0.03423 1.8152-0.55333 2.8695-0.67428 1.3657-1.7629 2.42-3.1286 3.06-0.8467 0.39717-1.2105 0.46668-2.6277 0.46668-1.4524-0.01719-1.7629-0.06949-2.6791-0.51902-1.3134-0.63999-2.4724-1.7981-3.1115-3.1115-0.44954-0.9162-0.50099-1.2276-0.51904-2.6791 0-1.4172 0.069574-1.78 0.44953-2.6105 0.8124-1.7114 2.2124-2.9562 4.0105-3.5438 0.44952-0.15527 1.2791-0.22477 2.1953-0.19046 1.2448 0.052333 1.6248 0.13901 2.5067 0.58853z" stroke='none'/>
    </g>
  </defs>
  <use href="#gear-symbol"/>
  <use href="#close-symbol"/>
</svg>
